<svg width="271" height="271" viewBox="0 0 271 271" fill="none" xmlns="http://www.w3.org/2000/svg">
<g id="Group 11">
<g id="Group 8">
<circle id="Ellipse 23" cx="135.5" cy="135.5" r="135.5" fill="url(#paint0_linear_2026_956)"/>
</g>
<path id="Vector" fill-rule="evenodd" clip-rule="evenodd" d="M168.087 144.402C159.724 147.784 150.696 149.87 141.254 150.41C139.626 150.503 137.985 150.551 136.333 150.551C134.682 150.551 133.041 150.503 131.412 150.41C121.968 149.87 112.939 147.783 104.574 144.4C87.019 137.299 72.3913 124.489 63 108.275C77.638 83.0031 104.997 66 136.333 66C167.669 66 195.029 83.0031 209.667 108.275C200.274 124.491 185.644 137.302 168.087 144.402Z" fill="white"/>
<path id="Vector_2" d="M104.572 150.981C102.55 150.163 100.567 149.269 98.6254 148.303C92.3169 152.741 86.9839 158.269 82.9683 164.576C89.7939 175.295 100.425 183.764 113.184 188.458C119.264 190.695 125.826 192.075 132.691 192.432H139.843C146.706 192.075 158.768 198.865 141.253 216C154.014 211.306 182.739 175.296 189.566 164.576C185.562 158.287 180.247 152.773 173.963 148.341C172.044 149.293 170.084 150.175 168.086 150.983C159.723 154.365 150.695 156.451 141.253 156.991C139.625 157.085 137.984 157.132 136.332 157.132C134.68 157.132 133.04 157.085 131.411 156.991C121.967 156.451 112.937 154.364 104.572 150.981Z" fill="white"/>
<g id="Group 9">
<rect id="Rectangle 17" x="101" y="96" width="70.8775" height="25.2809" rx="12.6404" fill="#1E1E1E"/>
<ellipse id="Ellipse 19" cx="136.295" cy="170.859" rx="4.64079" ry="4.63483" fill="#1E1E1E"/>
<ellipse id="Ellipse 21" cx="117.735" cy="170.859" rx="4.64079" ry="4.63483" fill="#1E1E1E"/>
<ellipse id="Ellipse 22" cx="154.861" cy="170.859" rx="4.64079" ry="4.63483" fill="#1E1E1E"/>
</g>
<g id="Group 10">
<ellipse id="Ellipse 18" cx="155.89" cy="108.635" rx="4.64079" ry="4.63483" fill="#55B948"/>
<ellipse id="Ellipse 20" cx="117.641" cy="108.635" rx="4.64079" ry="4.63483" fill="#55B948"/>
</g>
</g>
<defs>
<linearGradient id="paint0_linear_2026_956" x1="135.5" y1="0" x2="135.5" y2="271" gradientUnits="userSpaceOnUse">
<stop stop-color="#55B948"/>
<stop offset="1" stop-color="#3B99C9"/>
</linearGradient>
</defs>
</svg>
