<svg width="14" height="13" viewBox="0 0 14 13" fill="none" xmlns="http://www.w3.org/2000/svg">
<path d="M1.14175 0.0793538C0.51631 -0.210884 -0.175983 0.343265 0.0406651 0.960466L1.44555 4.95976C1.48528 5.07275 1.55762 5.17345 1.65468 5.25092C1.75175 5.3284 1.86983 5.37968 1.99609 5.39918L7.54703 6.25819C7.83928 6.30369 7.83928 6.69371 7.54703 6.73921L1.99644 7.59822C1.87019 7.61773 1.7521 7.669 1.65504 7.74648C1.55797 7.82395 1.48563 7.92466 1.4459 8.03764L0.0406651 12.0392C-0.176333 12.6567 0.51631 13.2109 1.14175 12.9206L13.5645 7.15425C14.1452 6.88449 14.1452 6.11518 13.5645 5.84575L1.14175 0.0793538Z" fill="url(#paint0_linear_203_24)"/>
<defs>
<linearGradient id="paint0_linear_203_24" x1="0" y1="6.5" x2="14" y2="6.5" gradientUnits="userSpaceOnUse">
<stop stop-color="#55B948"/>
<stop offset="0.772851" stop-color="#48B4C6"/>
<stop offset="1" stop-color="#44B2EB"/>
</linearGradient>
</defs>
</svg>
